<svg width="19" height="19" viewBox="0 0 19 19" fill="none" xmlns="http://www.w3.org/2000/svg">
<path d="M17.2372 8.6246V4.39346C17.2372 3.46064 16.4782 2.70172 15.5454 2.70172H3.45459C2.52177 2.70172 1.76284 3.46064 1.76284 4.39346V8.6246C0.74768 8.90563 0 9.83707 0 10.9404V14.1553C0 14.4668 0.252566 14.7194 0.564062 14.7194H1.76284V15.7341C1.76284 16.0456 2.01541 16.2982 2.32691 16.2982C2.6384 16.2982 2.89097 16.0456 2.89097 15.7341V14.7194H16.109V15.7341C16.109 16.0456 16.3616 16.2982 16.6731 16.2982C16.9846 16.2982 17.2372 16.0456 17.2372 15.7341V14.7194H18.4359C18.7474 14.7194 19 14.4668 19 14.1553V10.9404C19 9.83707 18.2523 8.90563 17.2372 8.6246ZM2.89097 4.39346C2.89097 4.08271 3.14383 3.82985 3.45459 3.82985H15.5455C15.8562 3.82985 16.1091 4.08271 16.1091 4.39346V8.53732H14.7874V7.40507C14.7874 6.42053 13.9864 5.61956 13.0019 5.61956H10.7215C10.2493 5.61956 9.81966 5.8041 9.50004 6.1045C9.18041 5.80414 8.75076 5.61956 8.27858 5.61956H5.99817C5.01362 5.61956 4.21266 6.42056 4.21266 7.40507V8.53732H2.89097V4.39346ZM13.6593 7.40507V8.53732H10.0641V7.40507C10.0641 7.04255 10.359 6.74768 10.7215 6.74768H13.0019C13.3644 6.74768 13.6593 7.04259 13.6593 7.40507ZM8.9359 7.40507V8.53732H5.34067V7.40507C5.34067 7.04255 5.63562 6.74768 5.99806 6.74768H8.27847C8.64099 6.74768 8.9359 7.04259 8.9359 7.40507ZM17.8719 13.5912H1.12812V10.9404C1.12812 10.2374 1.70005 9.66544 2.40309 9.66544H16.5969C17.2999 9.66544 17.8719 10.2374 17.8719 10.9404V13.5912Z" fill="white"/>
</svg>
