<svg width="19" height="19" viewBox="0 0 19 19" fill="none" xmlns="http://www.w3.org/2000/svg">
<path d="M17.2372 8.62462V4.39349C17.2372 3.46067 16.4782 2.70174 15.5454 2.70174H3.45459C2.52177 2.70174 1.76284 3.46067 1.76284 4.39349V8.62462C0.74768 8.90565 0 9.8371 0 10.9404V14.1553C0 14.4668 0.252566 14.7194 0.564062 14.7194H1.76284V15.7341C1.76284 16.0456 2.01541 16.2982 2.32691 16.2982C2.6384 16.2982 2.89097 16.0456 2.89097 15.7341V14.7194H16.109V15.7341C16.109 16.0456 16.3616 16.2982 16.6731 16.2982C16.9846 16.2982 17.2372 16.0456 17.2372 15.7341V14.7194H18.4359C18.7474 14.7194 19 14.4668 19 14.1553V10.9404C19 9.8371 18.2523 8.90565 17.2372 8.62462ZM2.89097 4.39349C2.89097 4.08273 3.14383 3.82987 3.45459 3.82987H15.5455C15.8562 3.82987 16.1091 4.08273 16.1091 4.39349V8.53734H14.7874V7.4051C14.7874 6.42055 13.9864 5.61958 13.0019 5.61958H10.7215C10.2493 5.61958 9.81966 5.80412 9.50004 6.10453C9.18041 5.80416 8.75076 5.61958 8.27858 5.61958H5.99817C5.01362 5.61958 4.21266 6.42059 4.21266 7.4051V8.53734H2.89097V4.39349ZM13.6593 7.4051V8.53734H10.0641V7.4051C10.0641 7.04258 10.359 6.7477 10.7215 6.7477H13.0019C13.3644 6.7477 13.6593 7.04261 13.6593 7.4051ZM8.9359 7.4051V8.53734H5.34067V7.4051C5.34067 7.04258 5.63562 6.7477 5.99806 6.7477H8.27847C8.64099 6.7477 8.9359 7.04261 8.9359 7.4051ZM17.8719 13.5913H1.12812V10.9404C1.12812 10.2374 1.70005 9.66547 2.40309 9.66547H16.5969C17.2999 9.66547 17.8719 10.2374 17.8719 10.9404V13.5913Z" fill="#696969"/>
</svg>
