<svg width="60" height="60" viewBox="0 0 60 60" fill="none" xmlns="http://www.w3.org/2000/svg">
<g clip-path="url(#clip0_1987_16803)">
<path d="M35 22.725L57.025 27.1C58.8 27.475 60 28.975 60 30.75V56.25C60 58.325 58.325 60 56.25 60H33.75C34.45 60 35 59.45 35 58.75V57.5H56.25C56.925 57.5 57.5 56.95 57.5 56.25V30.75C57.5 30.175 57.1 29.65 56.525 29.525L35 25.275V22.725Z" fill="white"/>
<path d="M48.75 35.0001C49.45 35.0001 50 35.5501 50 36.2501C50 36.9501 49.45 37.5001 48.75 37.5001H43.75C43.05 37.5001 42.5 36.9501 42.5 36.2501C42.5 35.5501 43.05 35.0001 43.75 35.0001H48.75Z" fill="white"/>
<path d="M48.75 42.5001C49.45 42.5001 50 43.0501 50 43.7501C50 44.4501 49.45 45.0001 48.75 45.0001H43.75C43.05 45.0001 42.5 44.4501 42.5 43.7501C42.5 43.0501 43.05 42.5001 43.75 42.5001H48.75Z" fill="white"/>
<path d="M48.75 50.0001C49.45 50.0001 50 50.5501 50 51.2501C50 51.9501 49.45 52.5001 48.75 52.5001H43.75C43.05 52.5001 42.5 51.9501 42.5 51.2501C42.5 50.5501 43.05 50.0001 43.75 50.0001H48.75Z" fill="white"/>
<path d="M35 58.7501C35 59.4501 34.45 60.0001 33.75 60.0001C33.05 60.0001 32.5 59.4501 32.5 58.7501V57.5001V23.7501C32.5 23.3751 32.675 23.025 32.95 22.775C33.25 22.55 33.625 22.4501 34 22.5251L35 22.7251V25.275V57.5001V58.7501Z" fill="white"/>
<path d="M32.5 57.5001V58.7501C32.5 59.4501 33.05 60.0001 33.75 60.0001H23.75C24.45 60.0001 25 59.4501 25 58.7501V57.5001H32.5Z" fill="white"/>
<path d="M26.25 12.5001C26.95 12.5001 27.5 13.0501 27.5 13.7501C27.5 14.4501 26.95 15.0001 26.25 15.0001H21.25C20.55 15.0001 20 14.4501 20 13.7501C20 13.0501 20.55 12.5001 21.25 12.5001H26.25Z" fill="white"/>
<path d="M27.5 21.2501C27.5 21.9501 26.95 22.5001 26.25 22.5001H21.25C20.55 22.5001 20 21.9501 20 21.2501C20 20.5501 20.55 20.0001 21.25 20.0001H26.25C26.95 20.0001 27.5 20.5501 27.5 21.2501Z" fill="white"/>
<path d="M26.25 27.5001C26.95 27.5001 27.5 28.0501 27.5 28.7501C27.5 29.4501 26.95 30.0001 26.25 30.0001H21.25C20.55 30.0001 20 29.4501 20 28.7501C20 28.0501 20.55 27.5001 21.25 27.5001H26.25Z" fill="white"/>
<path d="M26.25 35.0001C26.95 35.0001 27.5 35.5501 27.5 36.2501C27.5 36.9501 26.95 37.5001 26.25 37.5001H21.25C20.55 37.5001 20 36.9501 20 36.2501C20 35.5501 20.55 35.0001 21.25 35.0001H26.25Z" fill="white"/>
<path d="M15 36.2501C15 36.9501 14.45 37.5001 13.75 37.5001H8.75C8.05 37.5001 7.5 36.9501 7.5 36.2501C7.5 35.5501 8.05 35.0001 8.75 35.0001H13.75C14.45 35.0001 15 35.5501 15 36.2501Z" fill="white"/>
<path d="M13.75 12.5001C14.45 12.5001 15 13.0501 15 13.7501C15 14.4501 14.45 15.0001 13.75 15.0001H8.75C8.05 15.0001 7.5 14.4501 7.5 13.7501C7.5 13.0501 8.05 12.5001 8.75 12.5001H13.75Z" fill="white"/>
<path d="M13.75 20.0001C14.45 20.0001 15 20.5501 15 21.2501C15 21.9501 14.45 22.5001 13.75 22.5001H8.75C8.05 22.5001 7.5 21.9501 7.5 21.2501C7.5 20.5501 8.05 20.0001 8.75 20.0001H13.75Z" fill="white"/>
<path d="M13.75 27.5001C14.45 27.5001 15 28.0501 15 28.7501C15 29.4501 14.45 30.0001 13.75 30.0001H8.75C8.05 30.0001 7.5 29.4501 7.5 28.7501C7.5 28.0501 8.05 27.5001 8.75 27.5001H13.75Z" fill="white"/>
<path d="M22.5 46.2501C22.5 45.5501 21.925 45.0001 21.25 45.0001H13.75C13.05 45.0001 12.5 45.5501 12.5 46.2501V57.5001H10V46.2501C10 44.1751 11.675 42.5001 13.75 42.5001H21.25C23.325 42.5001 25 44.1751 25 46.2501V57.5001H22.5V46.2501Z" fill="white"/>
<path d="M12.5 57.5001H22.5H25V58.7501C25 59.4501 24.45 60.0001 23.75 60.0001H11.25C10.55 60.0001 10 59.4501 10 58.7501V57.5001H12.5Z" fill="white"/>
<path d="M4.375 0.500088L31.85 4.67509C33.675 4.97509 35 6.52509 35 8.37509V22.7251L34 22.5251C33.625 22.4501 33.25 22.5501 32.95 22.7751C32.675 23.0251 32.5 23.3751 32.5 23.7501V8.37509C32.5 7.75009 32.05 7.22509 31.45 7.12509L3.975 2.97509C3.9 2.95009 3.825 2.95009 3.75 2.95009C3.45 2.95009 3.175 3.05009 2.95 3.25009C2.65 3.50009 2.5 3.82509 2.5 4.20009V56.2501C2.5 56.9501 3.075 57.5001 3.75 57.5001H10V58.7501C10 59.4501 10.55 60.0001 11.25 60.0001H3.75C1.675 60.0001 0 58.3251 0 56.2501V4.20009C0 3.10009 0.475 2.05009 1.325 1.35009C2.175 0.625089 3.275 0.325088 4.375 0.500088Z" fill="white"/>
</g>
<defs>
<clipPath id="clip0_1987_16803">
<rect width="60" height="60" fill="white"/>
</clipPath>
</defs>
</svg>
