<svg width="19" height="19" viewBox="0 0 19 19" fill="none" xmlns="http://www.w3.org/2000/svg">
<path d="M18.2733 7.61218L17.8592 7.17372L16.4058 3.25598C16.1581 2.59423 15.5248 2.15577 14.8184 2.15171H4.43739C3.73098 2.15171 3.09765 2.59423 2.85 3.25598L1.41688 7.125L0.820086 7.67714C0.300427 8.11966 0 8.76923 0 9.45128V15.1594C0.00405983 16.0932 0.763248 16.8483 1.69701 16.8483H2.7688C3.70256 16.8483 4.46175 16.0932 4.46581 15.1594V14.3312H14.5342V15.1594C14.5382 16.0932 15.2974 16.8483 16.2312 16.8483H17.303C18.2368 16.8483 18.9959 16.0932 19 15.1594V9.30107C18.9959 8.66368 18.7361 8.0547 18.2733 7.61218ZM3.61325 3.53205C3.74316 3.18697 4.07201 2.96368 4.43739 2.96368H14.8224C15.1878 2.96368 15.5167 3.19103 15.6466 3.53205L16.9132 6.94231H15.9673C15.744 5.41987 14.3271 4.36838 12.8047 4.59573C11.5908 4.77436 10.6368 5.72842 10.4581 6.94231H2.34658L3.61325 3.53205ZM15.1391 6.94231H11.2782C11.5015 5.87457 12.5489 5.19252 13.6167 5.41581C14.3799 5.57821 14.9767 6.175 15.1391 6.94231ZM3.65385 15.1594C3.64979 15.6466 3.25598 16.0363 2.7688 16.0363H1.69701C1.20983 16.0363 0.816026 15.6466 0.811966 15.1594V14.0957C1.05556 14.2541 1.37628 14.3312 1.69701 14.3312H3.65385V15.1594ZM18.188 15.1594C18.184 15.6466 17.7902 16.0363 17.303 16.0363H16.2312C15.744 16.0363 15.3502 15.6425 15.3462 15.1594V14.3312H17.303C17.6237 14.3312 17.9444 14.2541 18.188 14.0957V15.1594ZM17.303 13.5192H1.69701C1.21389 13.5233 0.816026 13.1376 0.811966 12.6504V9.45128C0.811966 9.0047 1.0109 8.57842 1.35192 8.29017C1.35598 8.28611 1.3641 8.27799 1.36816 8.27393L1.9203 7.75427H17.2949L17.6846 8.17244C17.6887 8.18056 17.7009 8.18462 17.7049 8.19274C18.0094 8.48098 18.184 8.88291 18.184 9.30107V12.6504H18.188C18.184 13.1335 17.7861 13.5233 17.303 13.5192Z" fill="#696969"/>
<path d="M5.35897 9.37819H2.31409C2.0908 9.37819 1.90811 9.56088 1.90811 9.78417V11.8953C1.90811 12.1186 2.0908 12.3013 2.31409 12.3013H5.35897C5.58226 12.3013 5.76495 12.1186 5.76495 11.8953V9.78417C5.76495 9.56088 5.58226 9.37819 5.35897 9.37819ZM4.95298 11.4893H2.72008V10.1902H4.95298V11.4893Z" fill="#696969"/>
<path d="M16.6859 9.37819H13.6411C13.4178 9.37819 13.2351 9.56088 13.2351 9.78417V11.8953C13.2351 12.1186 13.4178 12.3013 13.6411 12.3013H16.6859C16.9092 12.3013 17.0919 12.1186 17.0919 11.8953V9.78417C17.0919 9.56088 16.9092 9.37819 16.6859 9.37819ZM16.2799 11.4893H14.047V10.1902H16.2799V11.4893Z" fill="#696969"/>
<path d="M11.4609 11.0833H7.5391C7.31581 11.0833 7.13312 11.266 7.13312 11.4893C7.13312 11.7126 7.31581 11.8953 7.5391 11.8953H11.4609C11.6842 11.8953 11.8669 11.7126 11.8669 11.4893C11.8669 11.266 11.6842 11.0833 11.4609 11.0833Z" fill="#696969"/>
<path d="M11.4609 9.82478H7.5391C7.31581 9.82478 7.13312 10.0075 7.13312 10.2308C7.13312 10.454 7.31581 10.6367 7.5391 10.6367H11.4609C11.6842 10.6367 11.8669 10.454 11.8669 10.2308C11.8669 10.0075 11.6842 9.82478 11.4609 9.82478Z" fill="#696969"/>
</svg>
