<svg width="60" height="60" viewBox="0 0 60 60" fill="none" xmlns="http://www.w3.org/2000/svg">
<g clip-path="url(#clip0_1987_16784)">
<path d="M25.3129 24.1408C21.9077 24.1408 19.4536 26.9903 19.4536 30.4501C19.4536 34.2528 22.3803 36.7464 26.8106 40.521C27.5826 41.1787 28.381 41.859 29.2288 42.6007C29.4497 42.7939 29.725 42.8906 30.0004 42.8906C30.2758 42.8906 30.551 42.794 30.7719 42.6007C31.6198 41.859 32.4182 41.1787 33.1902 40.521C37.6204 36.7464 40.5471 34.2528 40.5471 30.4501C40.5471 26.99 38.0924 24.1408 34.6878 24.1408C32.36 24.1408 30.8836 25.4699 30.0004 26.7535C29.1173 25.4699 27.6407 24.1408 25.3129 24.1408ZM31.1305 29.7243C31.1394 29.6919 32.0496 26.4845 34.6878 26.4845C36.692 26.4845 38.2034 28.1894 38.2034 30.4501C38.2034 33.1706 35.7442 35.2659 31.6702 38.737C31.1296 39.1977 30.5762 39.6691 30.0004 40.1664C29.4245 39.6691 28.8712 39.1976 28.3306 38.737C24.2565 35.2659 21.7973 33.1706 21.7973 30.4501C21.7973 28.1894 23.3087 26.4845 25.3129 26.4845C27.9175 26.4845 28.8298 29.5818 28.8712 29.7277C29.0119 30.2348 29.4737 30.586 30.0004 30.586C30.5282 30.586 30.9908 30.2332 31.1305 29.7243Z" fill="white"/>
<path d="M14.7661 13.1252C15.4133 13.1252 15.938 12.6006 15.938 11.9534C15.938 11.3062 15.4133 10.7815 14.7661 10.7815C14.1189 10.7815 13.5942 11.3062 13.5942 11.9534C13.5942 12.6006 14.1189 13.1252 14.7661 13.1252Z" fill="white"/>
<path d="M52.4743 27.8713C53.296 28.4974 54.2774 28.8282 55.3125 28.8282C57.8972 28.8282 59.9999 26.7254 59.9999 24.1408C59.9999 22.6643 59.3258 21.3045 58.1547 20.4132L52.2657 15.8873V1.17229C52.2657 0.525187 51.741 0.000427246 51.0938 0.000427246H44.0626C43.4154 0.000427246 42.8908 0.525187 42.8908 1.17229V8.68263L32.8385 0.957369C32.0168 0.331244 31.0354 0.000427246 30.0003 0.000427246C28.9652 0.000427246 27.9838 0.331244 27.1581 0.960299L18.2356 7.81744C17.7225 8.21178 17.6261 8.94759 18.0206 9.46063C18.4149 9.97367 19.1507 10.0701 19.6639 9.67567L28.5823 2.82157C28.9924 2.50926 29.4827 2.34415 30.0003 2.34415C30.5179 2.34415 31.0082 2.50926 31.4144 2.81864L56.7309 22.2748C57.319 22.7223 57.6562 23.4025 57.6562 24.1408C57.6562 25.4331 56.6048 26.4845 55.3125 26.4845C54.7949 26.4845 54.3046 26.3194 53.8988 26.0102C52.586 25.0007 31.7737 8.99364 30.7148 8.1792C30.3085 7.86666 29.7462 7.85448 29.3267 8.1492C29.2736 8.18635 6.10804 26.0054 6.10558 26.0074C5.63578 26.3658 5.04845 26.5307 4.44939 26.4724C3.28901 26.36 2.65949 25.8143 2.40801 24.7024C2.19731 23.7709 2.52766 22.8405 3.27401 22.2715L11.3047 16.0999C11.8178 15.7056 11.9141 14.9698 11.5197 14.4567C11.1252 13.9437 10.3894 13.8473 9.8764 14.2417L1.84962 20.4104C0.368384 21.5396 -0.293483 23.3823 0.122176 25.2196C0.5976 27.3217 2.05422 28.5951 4.22264 28.805C5.41149 28.9214 6.58476 28.5895 7.52693 27.8709L7.52517 27.8687C7.57498 27.832 7.64295 27.7808 7.73505 27.7105V43.7883C5.05372 44.4314 2.98023 46.6131 2.48512 49.3755C0.939198 50.4686 0.000771257 52.2445 0.000771257 54.1403C0.000771257 57.3711 2.62926 59.9996 5.86008 59.9996H54.1408C57.3716 59.9996 60.0001 57.3711 60.0001 54.1403C60.0001 52.2445 59.0616 50.4686 57.5157 49.3755C57.0205 46.6119 54.9456 44.4296 52.2658 43.7878V27.7108L52.4743 27.8713ZM45.2345 2.34415H49.9219V14.0862L45.2345 10.4838V2.34415ZM18.7504 57.656H5.85996C3.92147 57.656 2.34438 56.0789 2.34438 54.1404C2.34438 52.8883 3.03519 51.7209 4.14717 51.0936C4.48103 50.9053 4.70157 50.5655 4.73802 50.1839C4.96712 47.7777 6.95917 45.9374 9.37566 45.9374C10.8847 45.9374 12.3126 46.6806 13.195 47.9252C13.4715 48.3152 13.9573 48.4983 14.4225 48.3874C14.7229 48.3159 14.9886 48.2811 15.235 48.2811C17.1274 48.2811 18.7273 49.801 18.7503 51.7553C18.6505 52.4599 19.0271 52.9416 19.5158 53.1119C20.4228 53.4278 21.0943 54.2854 21.0943 55.3122C21.0942 56.6046 20.0428 57.656 18.7504 57.656ZM38.9318 51.2525C38.2074 51.6623 37.6095 52.2533 37.1944 52.9687H22.8059C22.3905 52.253 21.7928 51.6622 21.0688 51.2525C21.0492 51.0414 21.018 50.832 20.9758 50.6238H39.0249C38.9827 50.8319 38.9516 51.0414 38.9318 51.2525ZM22.8088 57.656C23.2088 56.9661 23.4379 56.1654 23.4379 55.3123H36.5627C36.5627 56.1654 36.7919 56.9661 37.1918 57.656H22.8088ZM55.2627 50.1839C55.299 50.5655 55.5197 50.9051 55.8535 51.0936C56.9655 51.7209 57.6563 52.8883 57.6563 54.1404C57.6563 56.0789 56.0792 57.656 54.1408 57.656H41.2503C39.958 57.656 38.9066 56.6046 38.9066 55.3123C38.9066 54.2843 39.5792 53.4275 40.4851 53.112C40.9779 52.9403 41.3498 52.4559 41.2505 51.7554C41.2735 49.8061 42.8689 48.2812 44.7659 48.2812C45.0122 48.2812 45.278 48.316 45.5783 48.3875C46.0432 48.4981 46.5293 48.3154 46.8058 47.9253C47.6884 46.6807 49.1162 45.9375 50.6252 45.9375C53.0407 45.9374 55.0334 47.7756 55.2627 50.1839ZM49.9219 43.6306C48.1706 43.8091 46.5404 44.6471 45.3674 45.9725C45.1627 45.9491 44.963 45.9374 44.7657 45.9374C42.9169 45.9374 41.1801 46.821 40.0808 48.2811H19.9199C18.8211 46.8213 17.0839 45.9374 15.2348 45.9374C15.0375 45.9374 14.8378 45.9491 14.6332 45.9725C13.4602 44.6469 11.8301 43.8091 10.0787 43.6306V25.9086C11.7797 24.6003 28.0428 12.0916 30.0002 10.5864L49.9219 25.9084V43.6306Z" fill="white"/>
</g>
<defs>
<clipPath id="clip0_1987_16784">
<rect width="60" height="60" fill="white"/>
</clipPath>
</defs>
</svg>
