<svg width="10" height="10" viewBox="0 0 10 10" fill="none" xmlns="http://www.w3.org/2000/svg">
<g clip-path="url(#clip0_1987_16955)">
<path d="M0.159839 7.45946L0.487403 7.7893C0.590493 7.89231 0.727648 7.94906 0.874234 7.94906C1.02074 7.94906 1.15806 7.89231 1.26115 7.7893L4.99776 4.05252L8.73869 7.79345C8.84162 7.89646 8.97893 7.95312 9.12544 7.95312C9.27195 7.95312 9.40934 7.89646 9.51235 7.79345L9.84 7.46564C10.0533 7.25247 10.0533 6.90523 9.84 6.69206L5.38598 2.22202C5.28305 2.11909 5.1459 2.04657 4.99809 2.04657L4.99638 2.04657C4.8498 2.04657 4.71264 2.11917 4.60971 2.22202L0.159839 6.67994C0.0567485 6.78287 0.000163168 6.92417 7.71459e-08 7.07068C6.43309e-08 7.21726 0.0567484 7.35662 0.159839 7.45946Z" fill="white"/>
</g>
<defs>
<clipPath id="clip0_1987_16955">
<rect width="10" height="10" fill="white" transform="translate(10 10) rotate(-180)"/>
</clipPath>
</defs>
</svg>
