<svg width="12" height="12" viewBox="0 0 12 12" fill="none" xmlns="http://www.w3.org/2000/svg">
<path d="M2.66647 5.53176L8.00662 0.191706C8.13013 0.068097 8.29501 0 8.47081 0C8.64661 0 8.81149 0.068097 8.935 0.191706L9.32827 0.584873C9.58417 0.841066 9.58417 1.25745 9.32827 1.51326L4.84401 5.99751L9.33324 10.4867C9.45675 10.6104 9.52495 10.7751 9.52495 10.9508C9.52495 11.1267 9.45675 11.2915 9.33324 11.4152L8.93998 11.8083C8.81637 11.9319 8.65159 12 8.47579 12C8.29998 12 8.13511 11.9319 8.01159 11.8083L2.66647 6.46336C2.54266 6.33936 2.47466 6.1738 2.47505 5.99781C2.47466 5.82112 2.54266 5.65566 2.66647 5.53176Z" fill="white"/>
</svg>
