<svg width="13" height="13" viewBox="0 0 13 13" fill="none" xmlns="http://www.w3.org/2000/svg">
<path d="M2.73438 12.6904V4.51465H0.191406V12.6904H2.73438ZM1.44922 3.4209C2.26953 3.4209 2.92578 2.7373 2.92578 1.91699C2.92578 1.12402 2.26953 0.467773 1.44922 0.467773C0.65625 0.467773 0 1.12402 0 1.91699C0 2.7373 0.65625 3.4209 1.44922 3.4209ZM12.2227 12.6904H12.25V8.20605C12.25 6.01855 11.7578 4.32324 9.1875 4.32324C7.95703 4.32324 7.13672 5.00684 6.78125 5.63574H6.75391V4.51465H4.32031V12.6904H6.86328V8.64355C6.86328 7.57715 7.05469 6.56543 8.36719 6.56543C9.67969 6.56543 9.70703 7.76855 9.70703 8.72559V12.6904H12.2227Z" fill="white"/>
</svg>
