<svg width="117" height="36" viewBox="0 0 117 36" fill="none" xmlns="http://www.w3.org/2000/svg">
<path d="M50.456 10.7706H53.2382V24H50.456V18.5618H44.7895V24H42.0072V10.7706H44.7895V16.1722H50.456V10.7706Z" fill="white"/>
<path d="M60.7503 24.1831C59.7363 24.1831 58.8367 23.9908 58.0515 23.6063C57.2663 23.2218 56.648 22.6572 56.1967 21.9126C55.7515 21.168 55.5289 20.2921 55.5289 19.285C55.5289 17.7775 56.0112 16.5873 56.9757 15.7145C57.9402 14.8417 59.1984 14.4053 60.7503 14.4053C62.3084 14.4053 63.5697 14.8417 64.5342 15.7145C65.4987 16.5873 65.9809 17.7775 65.9809 19.285C65.9809 20.7987 65.4987 21.995 64.5342 22.8739C63.5697 23.7467 62.3084 24.1831 60.7503 24.1831ZM60.7225 22.0865C61.5015 22.0865 62.1291 21.8302 62.6051 21.3175C63.0874 20.8048 63.3285 20.1273 63.3285 19.285C63.3285 18.4427 63.0874 17.7653 62.6051 17.2526C62.1291 16.7399 61.5015 16.4835 60.7225 16.4835C59.9744 16.4835 59.3623 16.7429 58.8862 17.2617C58.4163 17.7744 58.1814 18.4489 58.1814 19.285C58.1814 20.1212 58.4163 20.7987 58.8862 21.3175C59.3623 21.8302 59.9744 22.0865 60.7225 22.0865Z" fill="white"/>
<path d="M74.2906 14.5884H76.9616V24H74.4297L74.3648 22.8647C73.66 23.7437 72.6491 24.1831 71.3321 24.1831C70.1883 24.1831 69.3104 23.9023 68.6983 23.3408C68.0862 22.7732 67.7801 21.9675 67.7801 20.9238V14.5884H70.4604V20.3562C70.4604 20.9421 70.618 21.3724 70.9334 21.6471C71.2549 21.9218 71.6691 22.0591 72.1761 22.0591C72.7944 22.0591 73.2983 21.8821 73.6878 21.5281C74.0835 21.168 74.2844 20.5851 74.2906 19.7794V14.5884Z" fill="white"/>
<path d="M86.6902 14.5884L82.4982 21.9675H86.5603V24H78.7051L82.8785 16.6208H79.0297V14.5884H86.6902Z" fill="white"/>
<path d="M89.8898 13.1785C89.4632 13.1785 89.0984 13.032 88.7954 12.739C88.4925 12.4399 88.341 12.0798 88.341 11.6587C88.341 11.2437 88.4925 10.8896 88.7954 10.5967C89.1045 10.2976 89.4693 10.1481 89.8898 10.1481C90.304 10.1481 90.6626 10.2976 90.9656 10.5967C91.2685 10.8896 91.42 11.2437 91.42 11.6587C91.42 12.0798 91.2685 12.4399 90.9656 12.739C90.6626 13.032 90.304 13.1785 89.8898 13.1785ZM88.5265 24V14.5884H91.216V24H88.5265Z" fill="white"/>
<path d="M99.6091 14.4053C100.753 14.4053 101.631 14.6891 102.243 15.2567C102.855 15.8182 103.161 16.6208 103.161 17.6646V24H100.481V18.2322C100.481 17.6401 100.32 17.2068 99.9986 16.9321C99.6833 16.6575 99.2752 16.5201 98.7744 16.5201C98.4838 16.5201 98.218 16.5598 97.9768 16.6392C97.7357 16.7185 97.5131 16.8436 97.3091 17.0145C97.1051 17.1793 96.9443 17.4143 96.8268 17.7195C96.7156 18.0247 96.6568 18.3878 96.6506 18.809V24H93.9797V14.5884H96.6506V15.6321C97.3555 14.8142 98.3416 14.4053 99.6091 14.4053Z" fill="white"/>
<path d="M112.324 14.5884H114.865V23.295C114.865 24.1923 114.745 24.9735 114.503 25.6388C114.268 26.3041 113.925 26.8381 113.474 27.241C113.023 27.6499 112.494 27.952 111.888 28.1473C111.282 28.3427 110.59 28.4403 109.811 28.4403C107.294 28.4403 105.656 27.4668 104.895 25.5198L107.112 24.5859C107.384 25.2024 107.727 25.6571 108.141 25.9501C108.556 26.243 109.078 26.3895 109.709 26.3895C111.359 26.3895 112.185 25.4221 112.185 23.4873V22.3887C111.9 22.7732 111.499 23.0845 110.979 23.3225C110.466 23.5544 109.903 23.6704 109.291 23.6704C108.704 23.6704 108.144 23.5605 107.613 23.3408C107.087 23.115 106.627 22.8037 106.231 22.407C105.835 22.0042 105.52 21.5098 105.285 20.9238C105.056 20.3379 104.942 19.7031 104.942 19.0195C104.942 18.3298 105.056 17.6951 105.285 17.1152C105.52 16.5293 105.835 16.041 106.231 15.6504C106.633 15.2598 107.096 14.9546 107.622 14.7349C108.154 14.5151 108.716 14.4053 109.31 14.4053C109.965 14.4053 110.553 14.5365 111.072 14.799C111.598 15.0553 111.993 15.4001 112.259 15.8335L112.324 14.5884ZM108.225 20.814C108.701 21.2961 109.285 21.5372 109.978 21.5372C110.67 21.5372 111.254 21.2931 111.73 20.8048C112.207 20.3165 112.445 19.7214 112.445 19.0195C112.445 18.3115 112.207 17.7134 111.73 17.2251C111.261 16.7368 110.676 16.4927 109.978 16.4927C109.273 16.4927 108.685 16.7338 108.216 17.2159C107.752 17.692 107.52 18.2932 107.52 19.0195C107.52 19.7336 107.755 20.3318 108.225 20.814Z" fill="white"/>
<path d="M7.32205 17.7038V10.4231L15.1946 5.96333C17.8217 7.44993 20.443 8.93653 23.0672 10.4231V21.6982H8.94887H1.63392C1.36661 21.1001 1.09356 20.5106 0.872243 19.8984C-0.036018 17.385 -0.234341 14.6827 0.274401 12.0846C0.826255 9.25247 2.22026 6.55289 4.45068 4.36671C7.41977 1.45557 11.3086 0 15.1946 0C19.0863 0 22.9752 1.45557 25.9385 4.36671C28.9048 7.28068 30.3879 11.0973 30.3879 14.9111C30.3879 18.7278 28.9048 22.5473 25.9385 25.4556L15.1946 36L4.45068 25.4584C3.99655 25.0127 3.56541 24.5331 3.17164 24.0339H6.35918L15.1946 32.708L24.2628 23.8082C26.7634 21.354 28.0166 18.1298 28.0166 14.9111C28.0166 11.6925 26.7634 8.47109 24.2628 6.0141C21.7594 3.5543 18.4741 2.32722 15.1946 2.32722C11.9151 2.32722 8.6327 3.55712 6.12924 6.01128C4.24373 7.86178 3.07104 10.1354 2.60541 12.5162C2.15703 14.7955 2.35823 17.1678 3.20038 19.3625H20.693V11.7602C18.8564 10.7193 17.0255 9.68124 15.1946 8.64316L9.69905 11.7602V17.7094H7.32205V17.7038Z" fill="white"/>
</svg>
