<svg width="18" height="18" viewBox="0 0 18 18" fill="none" xmlns="http://www.w3.org/2000/svg">
<g clip-path="url(#clip0_1987_16921)">
<path d="M12.937 18C12.356 18 11.7799 17.8973 11.2165 17.6926C8.73465 16.791 6.43096 15.3226 4.55439 13.4461C2.67783 11.5696 1.20941 9.26582 0.307867 6.78396C0.0181558 5.98637 -0.0673407 5.16305 0.0538379 4.33677C0.167353 3.5628 0.467153 2.81144 0.920861 2.16388C1.37657 1.51348 1.98412 0.972523 2.67779 0.599495C3.41752 0.201718 4.22492 0 5.07764 0C5.34284 0 5.57205 0.185301 5.62763 0.444603L6.51051 4.56471C6.55048 4.75128 6.49314 4.9454 6.35825 5.08033L4.84966 6.58889C6.27279 9.41836 8.58204 11.7276 11.4115 13.1507L12.9201 11.6421C13.055 11.5073 13.2492 11.45 13.4357 11.4899L17.5558 12.3728C17.8151 12.4283 18.0004 12.6576 18.0004 12.9228C18.0004 13.7755 17.7987 14.5829 17.4009 15.3226C17.0278 16.0163 16.4869 16.6239 15.8365 17.0796C15.189 17.5333 14.4376 17.8331 13.6636 17.9466C13.4211 17.9822 13.1786 18 12.937 18ZM4.62822 1.14956C3.50344 1.27373 2.50511 1.86328 1.84216 2.80947C1.09667 3.87343 0.92283 5.18206 1.36522 6.3999C3.09849 11.1713 6.82915 14.902 11.6006 16.6353C12.8184 17.0776 14.127 16.9038 15.191 16.1583C16.1372 15.4954 16.7267 14.497 16.8509 13.3723L13.4992 12.654L11.9237 14.2295C11.7561 14.3972 11.5013 14.4417 11.2868 14.3409C7.94043 12.7688 5.23168 10.06 3.65956 6.71365C3.55877 6.4991 3.60328 6.24437 3.77093 6.07675L5.34643 4.50126L4.62822 1.14956Z" fill="white"/>
</g>
<defs>
<clipPath id="clip0_1987_16921">
<rect width="18" height="18" fill="white"/>
</clipPath>
</defs>
</svg>
