<svg width="18" height="18" viewBox="0 0 18 18" fill="none" xmlns="http://www.w3.org/2000/svg">
<path d="M8.99991 3.86914C7.1573 3.86914 5.6582 5.36824 5.6582 7.21085C5.6582 9.05346 7.1573 10.5526 8.99991 10.5526C10.8425 10.5526 12.3416 9.05346 12.3416 7.21085C12.3416 5.36824 10.8426 3.86914 8.99991 3.86914ZM8.99991 9.14553C7.93313 9.14553 7.06523 8.27763 7.06523 7.21085C7.06523 6.14407 7.93313 5.27616 8.99991 5.27616C10.0667 5.27616 10.9346 6.14407 10.9346 7.21085C10.9346 8.27763 10.0667 9.14553 8.99991 9.14553Z" fill="white"/>
<path d="M9.00001 0C5.02381 0 1.78894 3.2349 1.78894 7.21107V7.41041C1.78894 9.42135 2.94185 11.7647 5.21576 14.3753C6.86417 16.2679 8.48955 17.5875 8.55789 17.6427L9.00001 18L9.44214 17.6428C9.51052 17.5875 11.1359 16.2679 12.7843 14.3754C15.0581 11.7647 16.2111 9.42138 16.2111 7.41045V7.21111C16.2111 3.2349 12.9762 0 9.00001 0ZM14.8041 7.41045C14.8041 10.8088 10.4253 14.9226 9.00001 16.1715C7.57432 14.9222 3.19596 10.8086 3.19596 7.41045V7.21111C3.19596 4.01077 5.79967 1.40706 9.00001 1.40706C12.2004 1.40706 14.8041 4.01077 14.8041 7.21111V7.41045Z" fill="white"/>
</svg>
