<svg width="20" height="20" viewBox="0 0 20 20" fill="none" xmlns="http://www.w3.org/2000/svg">
<g clip-path="url(#clip0_1987_16881)">
<path d="M11.7509 7.58887L11.2291 8.11068C10.5997 7.78312 9.83092 7.90328 9.3048 8.42943C8.95776 8.77647 8.80844 9.1478 8.83518 9.60142C8.8645 9.99441 8.92918 10.2629 9.11075 10.747C9.37312 11.4865 9.38015 11.8176 9.13858 12.0592C8.98509 12.2127 8.81769 12.2997 8.64097 12.318C8.41982 12.335 8.22838 12.2545 8.03873 12.0649C7.67974 11.7059 7.69138 11.2942 8.08031 10.5964L8.21792 10.3495L7.09605 10.0736L7.01231 10.2008C6.54804 10.9063 6.51634 11.7419 6.91675 12.4232L6.40009 12.9399L7.16378 13.7036L7.68474 13.1826C7.9888 13.364 8.32515 13.4473 8.68621 13.4306C9.17012 13.4113 9.5986 13.2184 9.9597 12.8573L9.96606 12.8506C10.3729 12.4074 10.511 11.9755 10.428 11.408C10.3788 11.0517 10.3214 10.8705 10.2077 10.5295L10.0594 10.0614C10.0352 9.97891 10.0145 9.86707 9.98835 9.72575L9.98597 9.71295C9.95447 9.45573 10.0241 9.32944 10.1547 9.19886C10.3488 9.00469 10.6545 8.99442 10.8359 9.17591C11.0343 9.37422 11.1171 9.56933 10.9872 10.0316L10.9251 10.2528L12.0105 10.4848L12.0707 10.3002C12.2421 9.77455 12.2144 9.2972 11.9888 8.87848L12.5147 8.35252L11.7509 7.58887Z" fill="#0061DF"/>
<path d="M20 0.838057L19.1742 0.00756836L16.916 2.25302L9.59496 1.40336L0 10.9858L8.99492 19.9924L18.5898 10.41L17.7485 3.07683L20 0.838057ZM17.3618 9.98128L8.99597 18.3362L1.65625 10.9868L10.0221 2.63192L15.8543 3.30879L14.6815 4.47497C14.4724 4.38202 14.2444 4.33267 14.0086 4.33267C13.5664 4.33267 13.1506 4.50475 12.8377 4.81725C12.1912 5.46289 12.1905 6.51418 12.8361 7.16068C13.1492 7.47416 13.5656 7.64678 14.0086 7.64678C14.4509 7.64678 14.8667 7.4747 15.1796 7.16221C15.6832 6.65928 15.7948 5.91035 15.5145 5.29823L16.6904 4.12898L17.3618 9.98128ZM14.352 6.33355C14.2603 6.42518 14.1383 6.47565 14.0086 6.47565C13.8787 6.47565 13.7566 6.42502 13.6648 6.33312C13.4755 6.14356 13.4757 5.83524 13.6652 5.6459C13.757 5.55424 13.879 5.50381 14.0086 5.50381C14.1386 5.50381 14.2607 5.55444 14.3525 5.64633C14.5418 5.8359 14.5416 6.14422 14.352 6.33355Z" fill="#0061DF"/>
</g>
<defs>
<clipPath id="clip0_1987_16881">
<rect width="20" height="20" fill="white"/>
</clipPath>
</defs>
</svg>
