<svg width="12" height="12" viewBox="0 0 12 12" fill="none" xmlns="http://www.w3.org/2000/svg">
<path d="M2.66642 6.46824L8.00657 11.8083C8.13008 11.9319 8.29496 12 8.47076 12C8.64657 12 8.81144 11.9319 8.93496 11.8083L9.32822 11.4151C9.58412 11.1589 9.58412 10.7425 9.32822 10.4867L4.84396 6.00249L9.3332 1.51326C9.45671 1.38965 9.5249 1.22487 9.5249 1.04916C9.5249 0.873261 9.45671 0.708482 9.3332 0.584775L8.93993 0.191706C8.81632 0.0680971 8.65154 0 8.47574 0C8.29994 0 8.13506 0.0680971 8.01155 0.191706L2.66642 5.53664C2.54262 5.66064 2.47462 5.8262 2.47501 6.00219C2.47462 6.17888 2.54262 6.34434 2.66642 6.46824Z" fill="#0D263B"/>
</svg>
