<svg width="20" height="20" viewBox="0 0 20 20" fill="none" xmlns="http://www.w3.org/2000/svg">
<g clip-path="url(#clip0_1987_16887)">
<path d="M4.27391 3.48005H0.58823C0.263319 3.48005 0 3.21655 0 2.89182C0 2.56708 0.263319 2.30359 0.58823 2.30359H4.27391C4.59882 2.30359 4.86214 2.56708 4.86214 2.89182C4.86214 3.21655 4.59882 3.48005 4.27391 3.48005Z" fill="#0061DF"/>
<path d="M6.38012 5.58609C4.89439 5.58609 3.68573 4.37743 3.68573 2.89183C3.68573 1.40592 4.89439 0.197266 6.38012 0.197266C7.86585 0.197266 9.07451 1.40592 9.07451 2.89183C9.07451 4.37748 7.86585 5.58609 6.38012 5.58609ZM6.38012 1.37377C5.54311 1.37377 4.86219 2.05483 4.86219 2.89183C4.86219 3.72884 5.54311 4.40959 6.38012 4.40959C7.21713 4.40959 7.89805 3.72884 7.89805 2.89183C7.89805 2.05483 7.21713 1.37377 6.38012 1.37377Z" fill="#0061DF"/>
<path d="M19.4118 3.48005H10.6201C10.2952 3.48005 10.0319 3.21655 10.0319 2.89182C10.0319 2.56708 10.2952 2.30359 10.6201 2.30359H19.4117C19.7366 2.30359 20 2.56708 20 2.89182C20 3.21655 19.7367 3.48005 19.4118 3.48005Z" fill="#0061DF"/>
<path d="M14.2781 12.6943C12.7923 12.6943 11.5837 11.4856 11.5837 10C11.5837 8.51444 12.7923 7.30579 14.2781 7.30579C15.7638 7.30579 16.9725 8.51444 16.9725 10C16.9725 11.4856 15.7638 12.6943 14.2781 12.6943ZM14.2781 8.48229C13.4411 8.48229 12.7601 9.16304 12.7601 10C12.7601 10.837 13.4411 11.5178 14.2781 11.5178C15.1151 11.5178 15.796 10.837 15.796 10C15.796 9.16304 15.1151 8.48229 14.2781 8.48229Z" fill="#0061DF"/>
<path d="M10.0382 10.5882H0.58823C0.263319 10.5882 0 10.3247 0 9.99997C0 9.67524 0.263319 9.41174 0.58823 9.41174H10.0382C10.3631 9.41174 10.6264 9.67524 10.6264 9.99997C10.6264 10.3247 10.3631 10.5882 10.0382 10.5882Z" fill="#0061DF"/>
<path d="M19.4118 10.5882H16.3842C16.0593 10.5882 15.796 10.3247 15.796 9.99997C15.796 9.67524 16.0593 9.41174 16.3842 9.41174H19.4118C19.7367 9.41174 20 9.67524 20 9.99997C20 10.3247 19.7367 10.5882 19.4118 10.5882Z" fill="#0061DF"/>
<path d="M5.72204 19.8028C4.23631 19.8028 3.02765 18.5941 3.02765 17.1082C3.02765 15.6226 4.23631 14.4139 5.72204 14.4139C7.20777 14.4139 8.41643 15.6226 8.41643 17.1082C8.41643 18.5941 7.20777 19.8028 5.72204 19.8028ZM5.72204 15.5904C4.88503 15.5904 4.20411 16.2712 4.20411 17.1082C4.20411 17.9452 4.88503 18.6263 5.72204 18.6263C6.55905 18.6263 7.23997 17.9452 7.23997 17.1082C7.23997 16.2712 6.55905 15.5904 5.72204 15.5904Z" fill="#0061DF"/>
<path d="M19.4118 17.6964H9.96189C9.63698 17.6964 9.37366 17.4329 9.37366 17.1081C9.37366 16.7834 9.63698 16.5199 9.96189 16.5199H19.4118C19.7367 16.5199 20 16.7834 20 17.1081C20 17.4329 19.7367 17.6964 19.4118 17.6964Z" fill="#0061DF"/>
<path d="M3.61581 17.6964H0.58823C0.263319 17.6964 0 17.4329 0 17.1081C0 16.7834 0.263319 16.5199 0.58823 16.5199H3.61581C3.94072 16.5199 4.20404 16.7834 4.20404 17.1081C4.20404 17.4329 3.94072 17.6964 3.61581 17.6964Z" fill="#0061DF"/>
</g>
<defs>
<clipPath id="clip0_1987_16887">
<rect width="20" height="20" fill="white"/>
</clipPath>
</defs>
</svg>
