<svg width="14" height="13" viewBox="0 0 14 13" fill="none" xmlns="http://www.w3.org/2000/svg">
<path d="M12.5508 3.59668C13.0977 3.18652 13.5898 2.69434 13.9727 2.12012C13.4805 2.33887 12.9062 2.50293 12.332 2.55762C12.9336 2.20215 13.3711 1.65527 13.5898 0.97168C13.043 1.2998 12.4141 1.5459 11.7852 1.68262C11.2383 1.1084 10.5 0.780273 9.67969 0.780273C8.09375 0.780273 6.80859 2.06543 6.80859 3.65137C6.80859 3.87012 6.83594 4.08887 6.89062 4.30762C4.51172 4.1709 2.37891 3.02246 0.957031 1.2998C0.710938 1.70996 0.574219 2.20215 0.574219 2.74902C0.574219 3.7334 1.06641 4.6084 1.85938 5.12793C1.39453 5.10059 0.929688 4.99121 0.546875 4.77246V4.7998C0.546875 6.19434 1.53125 7.34277 2.84375 7.61621C2.625 7.6709 2.35156 7.72559 2.10547 7.72559C1.91406 7.72559 1.75 7.69824 1.55859 7.6709C1.91406 8.81934 2.98047 9.63965 4.23828 9.66699C3.25391 10.4326 2.02344 10.8975 0.683594 10.8975C0.4375 10.8975 0.21875 10.8701 0 10.8428C1.25781 11.6631 2.76172 12.1279 4.40234 12.1279C9.67969 12.1279 12.5508 7.78027 12.5508 3.97949C12.5508 3.84277 12.5508 3.7334 12.5508 3.59668Z" fill="white"/>
</svg>
