<svg width="24" height="24" viewBox="0 0 24 24" fill="none" xmlns="http://www.w3.org/2000/svg">
<path d="M22.0963 15.2349C21.3008 14.536 20.3362 13.9321 19.229 13.4401C18.7557 13.2299 18.2018 13.4431 17.9916 13.9162C17.7814 14.3893 17.9945 14.9432 18.4677 15.1536C19.4013 15.5685 20.2059 16.0697 20.8586 16.6434C21.6634 17.3505 22.125 18.3745 22.125 19.4531V21.1875C22.125 21.7044 21.7044 22.125 21.1875 22.125H2.8125C2.29559 22.125 1.875 21.7044 1.875 21.1875V19.4531C1.875 18.3745 2.33661 17.3505 3.14136 16.6434C4.08856 15.811 6.84833 13.875 12 13.875C15.8253 13.875 18.9375 10.7628 18.9375 6.9375C18.9375 3.11224 15.8253 0 12 0C8.17474 0 5.0625 3.11224 5.0625 6.9375C5.0625 9.17377 6.12634 11.166 7.77429 12.4354C4.75891 13.0983 2.88318 14.3741 1.90375 15.2349C0.69397 16.2979 0 17.8352 0 19.4531V21.1875C0 22.7384 1.2616 24 2.8125 24H21.1875C22.7384 24 24 22.7384 24 21.1875V19.4531C24 17.8352 23.306 16.2979 22.0963 15.2349ZM6.9375 6.9375C6.9375 4.14606 9.20856 1.875 12 1.875C14.7914 1.875 17.0625 4.14606 17.0625 6.9375C17.0625 9.72894 14.7914 12 12 12C9.20856 12 6.9375 9.72894 6.9375 6.9375Z" fill="white"/>
</svg>
