<svg width="60" height="60" viewBox="0 0 60 60" fill="none" xmlns="http://www.w3.org/2000/svg">
<g clip-path="url(#clip0_1987_16822)">
<path d="M7.5 27.1875H15C15.5175 27.1875 15.9375 26.7684 15.9375 26.25V20.625C15.9375 20.1066 15.5175 19.6875 15 19.6875H7.5C6.9825 19.6875 6.5625 20.1066 6.5625 20.625V26.25C6.5625 26.7684 6.9825 27.1875 7.5 27.1875ZM14.0625 25.3125H12.1875V21.5625H14.0625V25.3125ZM8.4375 21.5625H10.3125V25.3125H8.4375V21.5625Z" fill="white"/>
<path d="M18.75 27.1875H26.25C26.7675 27.1875 27.1875 26.7684 27.1875 26.25V20.625C27.1875 20.1066 26.7675 19.6875 26.25 19.6875H18.75C18.2325 19.6875 17.8125 20.1066 17.8125 20.625V26.25C17.8125 26.7684 18.2325 27.1875 18.75 27.1875ZM25.3125 25.3125H23.4375V21.5625H25.3125V25.3125ZM19.6875 21.5625H21.5625V25.3125H19.6875V21.5625Z" fill="white"/>
<path d="M58.3941 30.0394L30.9375 21.8026V20.6251H37.5C39.5681 20.6251 41.25 18.9432 41.25 16.8751C41.25 15.1304 40.0519 13.6594 38.4356 13.2432C38.4375 13.2038 38.4375 13.1644 38.4375 13.1251C38.4375 10.5404 36.3347 8.43755 33.75 8.43755C31.8572 8.43755 30.1791 9.57661 29.4525 11.281C28.9538 11.3391 28.4747 11.4844 28.0219 11.6963L17.5378 1.21224C17.1713 0.845676 16.5787 0.845676 16.2122 1.21224L3.08719 14.3372C2.91094 14.5126 2.8125 14.7507 2.8125 15.0001V53.4376H1.875C1.3575 53.4376 0.9375 53.8566 0.9375 54.3751V58.1251C0.9375 58.6435 1.3575 59.0626 1.875 59.0626H58.125C58.6425 59.0626 59.0625 58.6435 59.0625 58.1251V54.3751C59.0625 53.8566 58.6425 53.4376 58.125 53.4376H57.1875V36.3226L57.8559 36.5232C57.9441 36.5494 58.035 36.5626 58.125 36.5626C58.3237 36.5626 58.5206 36.4997 58.6847 36.3779C58.9228 36.1997 59.0625 35.9213 59.0625 35.6251V30.9376C59.0625 30.5241 58.7906 30.1585 58.3941 30.0394ZM29.0625 15.9376V29.0626H4.6875V15.9376H29.0625ZM29.0625 34.6876H27.1875V30.9376H29.0625V34.6876ZM10.3125 30.9376V34.6876H8.4375V30.9376H10.3125ZM12.1875 30.9376H14.0625V34.6876H12.1875V30.9376ZM15.9375 30.9376H17.8125V34.6876H15.9375V30.9376ZM19.6875 30.9376H21.5625V34.6876H19.6875V30.9376ZM23.4375 30.9376H25.3125V34.6876H23.4375V30.9376ZM6.5625 30.9376V34.6876H4.6875V30.9376H6.5625ZM29.0625 36.5626V38.4376H4.6875V36.5626H29.0625ZM29.9391 13.1222C29.97 13.1269 30.0581 13.1363 30.0891 13.1372C30.5428 13.1804 30.9272 12.8616 31.0369 12.4322C31.3556 11.1844 32.4713 10.3126 33.75 10.3126C35.3006 10.3126 36.5625 11.5744 36.5625 13.1251C36.5625 13.3369 36.5288 13.5629 36.4566 13.8376C36.3806 14.1254 36.4453 14.4319 36.6319 14.6635C36.8175 14.8951 37.1081 15.0376 37.3997 15.0132C37.4541 15.0113 37.5056 15.0047 37.5 15.0001C38.5341 15.0001 39.375 15.841 39.375 16.8751C39.375 17.9091 38.5341 18.7501 37.5 18.7501H30.9375V15.0001C30.9375 14.7507 30.8391 14.5126 30.6628 14.3372L29.4947 13.1691C29.6438 13.141 29.7928 13.1232 29.9391 13.1222ZM16.875 3.20068L27.7369 14.0626H6.01312L16.875 3.20068ZM4.6875 40.3126H29.0625V53.4376H23.4375V45.0001C23.4375 44.4816 23.0175 44.0626 22.5 44.0626H11.25C10.7325 44.0626 10.3125 44.4816 10.3125 45.0001V53.4376H4.6875V40.3126ZM12.1875 53.4376V45.9376H15.9375V53.4376H12.1875ZM17.8125 45.9376H21.5625V53.4376H17.8125V45.9376ZM57.1875 57.1876H2.8125V55.3126H57.1875V57.1876ZM51.5625 42.1876H34.6875V40.3126H51.5625V42.1876ZM34.6875 44.0626H51.5625V45.9376H34.6875V44.0626ZM34.6875 47.8126H51.5625V53.4376H34.6875V47.8126ZM55.3125 53.4376H53.4375V39.3751C53.4375 38.8566 53.0175 38.4376 52.5 38.4376H33.75C33.2325 38.4376 32.8125 38.8566 32.8125 39.3751V53.4376H30.9375V28.4476L55.3125 35.7601V53.4376ZM57.1875 34.3651L30.9375 26.4901V23.7601L57.1875 31.6351V34.3651Z" fill="white"/>
<path d="M46.875 13.125H54.375C56.9597 13.125 59.0625 11.0222 59.0625 8.4375C59.0625 6.0375 57.2503 4.05375 54.9225 3.78187C54.1959 2.07656 52.5178 0.9375 50.625 0.9375C48.0403 0.9375 45.9375 3.04031 45.9375 5.625C45.9375 5.66437 45.9375 5.70375 45.9394 5.74312C44.3231 6.15937 43.125 7.63031 43.125 9.375C43.125 11.4431 44.8069 13.125 46.875 13.125ZM46.8169 7.49719C46.8487 7.50188 46.9425 7.51219 46.9744 7.51312C47.2725 7.53656 47.5566 7.39594 47.7422 7.16344C47.9287 6.93187 47.9934 6.62531 47.9175 6.3375C47.8462 6.06281 47.8125 5.83687 47.8125 5.625C47.8125 4.07437 49.0744 2.8125 50.625 2.8125C51.9038 2.8125 53.0194 3.68438 53.3381 4.93219C53.4478 5.36156 53.8462 5.65969 54.2859 5.63719C54.3366 5.63531 54.3862 5.62969 54.375 5.625C55.9256 5.625 57.1875 6.88688 57.1875 8.4375C57.1875 9.98812 55.9256 11.25 54.375 11.25H46.875C45.8409 11.25 45 10.4091 45 9.375C45 8.34094 45.8409 7.5 46.8169 7.49719Z" fill="white"/>
</g>
<defs>
<clipPath id="clip0_1987_16822">
<rect width="60" height="60" fill="white"/>
</clipPath>
</defs>
</svg>
